<?xml version="1.0" encoding="utf-8"?>
<!-- Generator: Adobe Illustrator 16.0.4, SVG Export Plug-In . SVG Version: 6.00 Build 0)  -->
<!DOCTYPE svg PUBLIC "-//W3C//DTD SVG 1.1//EN" "http://www.w3.org/Graphics/SVG/1.1/DTD/svg11.dtd">
<svg version="1.1" id="Layer_1" xmlns="http://www.w3.org/2000/svg" xmlns:xlink="http://www.w3.org/1999/xlink" x="0px" y="0px"
	 viewBox="0.5 792.5 39.97 48" preserveAspectRatio="xMidYMid" enable-background="new 0.5 792.5 39.97 48" xml:space="preserve">
<g>
	<path fill="#004A76" d="M0.5,792.5v48h39.97v-48H0.5z M28.606,825.898c-2.92,0-5.232-4.137-5.232-9.247
		c0-5.109,2.374-9.247,5.232-9.247c0.974,0,1.886,0.487,2.677,1.338v4.501c-0.427-0.851-1.035-1.337-1.765-1.337
		c-1.398,0-2.494,2.129-2.494,4.806c0,2.616,1.096,4.806,2.494,4.806c0.668,0,1.337-0.548,1.765-1.398v4.502
		C30.553,825.474,29.579,825.898,28.606,825.898z M34.204,813.245h-0.426c-1.704-12.776-15.817-12.167-16.608,1.643
		c3.225-1.276,4.989-3.772,6.692-6.388h0.73c-3.711,4.076-2.859,13.323,0.182,16.365l-0.791-0.061
		c-1.825-2.435-3.407-4.807-6.327-5.659l-0.304-0.061c0.548,4.928,2.859,11.072,6.936,18.373
		c-4.989-3.163-14.113-4.138-16.729-4.017c7.421-17.338,1.886-31.757-2.008-38.267c2.738,1.217,16.792,4.928,29.871,0.426
		C33.96,797.914,33.595,807.71,34.204,813.245z"/>
</g>
</svg>
