<?xml version="1.0" encoding="utf-8"?>
<!-- Generator: Adobe Illustrator 18.1.1, SVG Export Plug-In . SVG Version: 6.00 Build 0)  -->
<svg version="1.1" xmlns="http://www.w3.org/2000/svg" xmlns:xlink="http://www.w3.org/1999/xlink" x="0px" y="0px"
	 viewBox="0 0 112 112" enable-background="new 0 0 112 112" xml:space="preserve">
<g id="Scratch" display="none">
</g>
<g id="Layer_1">
	<rect x="6" y="89" fill="#FF454A" width="101" height="17"/>
	<g>
		<path fill="#091F2F" d="M56,80.3c-21.1,0-38.3-17.2-38.3-38.3S34.9,3.7,56,3.7S94.3,20.9,94.3,42S77.1,80.3,56,80.3z M56,15.7
			c-14.5,0-26.3,11.8-26.3,26.3S41.5,68.3,56,68.3S82.3,56.5,82.3,42S70.5,15.7,56,15.7z"/>
	</g>
	<g>
		<circle fill="#091F2F" cx="55.8" cy="42.2" r="9"/>
	</g>
	<g>
		<rect x="22" y="40" fill="#091F2F" width="68" height="4"/>
	</g>
	<g>
		<rect x="54" y="9" fill="#091F2F" width="4" height="68"/>
	</g>
	<g>
		
			<rect x="21.7" y="39.2" transform="matrix(0.7071 0.7071 -0.7071 0.7071 45.4193 -27.3357)" fill="#091F2F" width="68" height="4"/>
	</g>
	<g>
		<rect x="53" y="7.9" transform="matrix(0.7071 0.7071 -0.7071 0.7071 45.7125 -26.6288)" fill="#091F2F" width="4" height="68"/>
	</g>
</g>
<g id="Originals" display="none">
	<g id="XMLID_1867_" display="inline">
		<g id="XMLID_1873_">
			<rect id="XMLID_1874_" x="8" y="57" fill="#FF454A" width="101" height="17"/>
		</g>
		<g id="XMLID_1871_">
			<rect id="XMLID_1872_" x="8" y="30" stroke="#000000" stroke-width="2" stroke-miterlimit="10" width="101" height="17"/>
		</g>
	</g>
	<g display="inline">
		<g>
			<path d="M86.8,9.6c-4.5,0-8.2,3.7-8.2,8.2c0,0.9,0.1,1.7,0.4,2.5c1.1,3.3,4.2,5.7,7.8,5.7c3.6,0,6.7-2.4,7.8-5.7
				c0.3-0.8,0.4-1.7,0.4-2.5C95,13.3,91.3,9.6,86.8,9.6z"/>
		</g>
		<g>
			<path d="M33.3,10.2c-4.5,0-8.2,3.7-8.2,8.2c0,0.7,0.1,1.3,0.2,2c0.9,3.6,4.1,6.3,8,6.3c3.9,0,7.1-2.7,8-6.3
				c0.2-0.6,0.2-1.3,0.2-2C41.5,13.9,37.8,10.2,33.3,10.2z"/>
		</g>
		<g>
			<path d="M105.2,15.7c0,0-0.1-12-0.1-15.7S100.4-4,100.4-4H79l-6.1,14H51.6l-5-8H17.3l0,14h0.1c-1.6,0-3,1.2-3,2.9
				c0,1.6,1.3,2.9,3,2.9l4.2,0c0.9,5.3,6.1,8.7,11.7,8.7S44.1,26,45,21h30.2c1.2,5,6.2,9.2,11.6,9.2c5.4,0,9.9-4.2,11.1-8.6l6.6,0.2
				c0.7,0,2.6-1.2,2.6-1.9v-2.1C107,17.1,105.2,15.7,105.2,15.7z M41.3,20.3c-0.9,3.6-4.1,6.3-8,6.3c-3.9,0-7.1-2.7-8-6.3
				c-0.2-0.6-0.2-1.3-0.2-2c0-4.5,3.7-8.2,8.2-8.2c4.5,0,8.2,3.7,8.2,8.2C41.5,19.1,41.4,19.7,41.3,20.3z M94.6,20.3
				c-1.1,3.3-4.2,5.7-7.8,5.7c-3.6,0-6.7-2.4-7.8-5.7c-0.3-0.8-0.4-1.7-0.4-2.5c0-4.5,3.7-8.2,8.2-8.2c4.5,0,8.2,3.7,8.2,8.2
				C95,18.7,94.9,19.5,94.6,20.3z"/>
		</g>
	</g>
	<g display="inline">
		<path d="M12.2,15.2H9c-1.1,0-2-0.9-2-2V-3.7c0-1.1,0.9-2,2-2h3.3c1.1,0,2,0.9,2,2v16.8C14.2,14.3,13.3,15.2,12.2,15.2z"/>
	</g>
	<path display="inline" d="M53.9,13.1"/>
	<path display="inline" stroke="#000000" stroke-width="2" stroke-miterlimit="10" d="M18.5,1.6l3.2-15.1c0.7-3.3,3.9-2.4,3.9-2.4
		h46.4L84.4,4.7l-7.8,9.1l-30.9-1.2L18.5,1.6z"/>
</g>
</svg>
