<!-- Generator: Adobe Illustrator 18.1.1, SVG Export Plug-In  -->
<svg version="1.1"
	 xmlns="http://www.w3.org/2000/svg" xmlns:xlink="http://www.w3.org/1999/xlink" xmlns:a="http://ns.adobe.com/AdobeSVGViewerExtensions/3.0/"
	 x="0px" y="0px" width="315.327px" height="226.254px" viewBox="0 0 315.327 226.254" enable-background="new 0 0 315.327 226.254"
	 xml:space="preserve">
<defs>
</defs>
<g>
	<defs>
		<path id="SVGID_70_" d="M44.799,149.224c-0.141-0.346-0.357-1.02-0.255-1.319c0.101-0.299,0.443-1.171,0.322-1.549
			c0,0,0.12-0.445,0.321,0.033c0.201,0.478,0.154,0.477,0.295,0.835c0.141,0.359,0.403,0.877,0.443,1.076
			c0.04,0.199,0.099,0.171,0.159,0.529c0.06,0.358-0.006,0.642-0.006,0.642c-0.01,0.253-0.19,0.445-0.411,0.445
			C45.121,149.917,44.932,149.551,44.799,149.224 M43.896,90.381c-1.324,3.674-2.873,5.789-3.928,9.559
			c-0.31,1.111-0.426,1.382-0.644,2.768c-0.159,1.014-0.079,3.13-0.196,4.087c-0.623,5.067-0.599,9.409-0.655,14.833
			c-0.061,5.951-0.599,13.093,0.303,19.383c0.104,0.727,0.454,3.522,0.445,4.286c-0.023,2.144,0.985,3.656,1.791,5.605
			c0.205,0.495,0.687,1.793,0.896,1.913c0.211,0.12,1.509,0.969,1.859,1.122c0.35,0.154,1.699,0.868,1.988,0.925
			c0.289,0.057,2.726,0.332,3.079,0.332c0.406,0,1.026,0.166,1.027-0.691c0-0.373-0.007-0.814-0.031-0.989
			c-0.032-0.231-0.175-0.437-0.32-0.561c-0.146-0.123,0.087-0.165,0.129-0.494c0.042-0.329,0.161-0.759,0.162-1.252
			c0-0.494,0.022-1.409,0.002-1.78c-0.02-0.37-0.13-1.575-0.255-1.945c-0.125-0.37-0.341-1.323-0.351-2.044
			c-0.06-4.549-1.81-8.396-2.494-8.836c-0.771-0.497-1.86-2.987-1.889-4.023c-0.135-4.973,1.849-11.166,3.854-15.661
			c2.484-5.567,3.154-9.186,3.715-12.156c0.277-1.464-0.093-3.641,0.286-6.263c0.323-2.232,2.446-3.838,3.455-5.84
			c1.621-3.214,2.875-6.605,4.72-9.708l-13.479-4.907C46.37,81.917,45.254,86.611,43.896,90.381"/>
	</defs>
	
		<linearGradient id="SVGID_71_" gradientUnits="userSpaceOnUse" x1="-23.7016" y1="167.2984" x2="170.5929" y2="27.8196" gradientTransform="matrix(1 9.071399e-04 -9.071399e-04 1 1.9312 -0.2456)">
		<stop  offset="0" style="stop-color:#EF433A"/>
		<stop  offset="0.5" style="stop-color:#F36C21"/>
		<stop  offset="1" style="stop-color:#FDB525"/>
	</linearGradient>
	<use xlink:href="#SVGID_70_"  overflow="visible" fill="url(#SVGID_71_)"/>
	<clipPath id="SVGID_72_">
		<use xlink:href="#SVGID_70_"  overflow="visible"/>
	</clipPath>
	
		<linearGradient id="SVGID_73_" gradientUnits="userSpaceOnUse" x1="-23.4013" y1="167.7166" x2="170.8932" y2="28.2379" gradientTransform="matrix(1 9.071399e-04 -9.071399e-04 1 1.9312 -0.2456)">
		<stop  offset="0" style="stop-color:#EF433A"/>
		<stop  offset="0.5" style="stop-color:#F36C21"/>
		<stop  offset="1" style="stop-color:#FDB525"/>
	</linearGradient>
	<polygon clip-path="url(#SVGID_72_)" fill="url(#SVGID_73_)" points="0,110.312 51.001,66.186 97.911,123.45 46.909,167.576 	"/>
</g>
<g>
	<defs>
		<path id="SVGID_69_" d="M56.275,62.158c-3.905,3.223-7.593,9.318-8.6,14.389c-0.101,0.507-0.182,1.017-0.243,1.531l13.088,5.097
			c4.774,9.169,9.702,19.377,7.451,29.516c-1.115,5.021-3.936,9.546-4.765,14.625c-1.456,8.922,3.404,17.509,8.07,25.18
			c5.651,9.289,11.301,18.577,16.952,27.866c1.232,2.026,2.509,4.21,2.435,6.598c-0.076,2.45-1.55,4.578-2.668,6.744
			c-2.305,4.464-3.223,9.67-2.589,14.681c2.146-0.025,4.292-0.049,6.439-0.074c1.624-2.019,0.332-4.999-0.763-7.364
			c-1.103-2.382-1.605-5.913,0.741-7.043c1.372-0.661,3.004-0.123,3.872,1.153c1.63,2.397,0.917,5.15,0.207,7.682
			c2.491-3.58,3.319-8.33,2.191-12.576c-1.064-4.003-3.679-7.338-5.927-10.784c-7.397-11.338-11.254-25.077-10.868-38.723
			c0.131-4.625,0.677-9.537-1.42-13.631c-2.143-4.182-6.618-6.601-9.037-10.635c-0.33-0.55-0.028-1.654,0.809-2.094
			c0.918-0.483,1.115,0.69,1.886,1.248c1.394,1.01,2.62,0.873,4.16,1.459c1.717,0.653,1.728,1.82,2.356,3.43
			c0.467,1.197,1.769,1.913,2.709,2.727c2.164,1.874,4.265,3.83,6.191,5.963c4.11,4.551,7.212,9.88,9.026,15.813
			c0.794-6.159,2.113-12.843,2.894-19.004c0.731-5.765-0.481-11.668,0.859-17.354c0.987-4.187,2.344-8.411,2.937-12.677
			c0.606-4.361,0.613-8.733,0.796-13.128c-1.984,1.858-5.226,2.766-7.769,1.888c0.131,0.045,0.748,0.991,1.179,1.129
			c0.854,0.273,1.93-0.052,2.712,0.344c2.482,1.259,0.95,1.824,0.612,4.011c-0.256,1.656,0.057,3.787-0.26,5.433
			c-0.682,3.545-1.624,7.656-4.204,10.296c-1.103,1.129,2.489-0.463,1.287,11.323c-0.245,2.408,0.77,4.599,0.354,7.122
			c-0.53,3.212-1.931,6.234-3.521,9.025c-0.98-5.049-3.452-7.392-5.937-9.009c-4.705-3.062-5.639-5.366-6.151-7.387
			c0.463,1.829,1.391,2.757,2.892,1.368c2.16-2.001-0.962-5.214-1.865-7.043c-0.787-1.594-1.506-5.18,0.271-5.875
			c2.093-0.819,3.592,1.775,3.391,2.328c-0.069,0.191,1.593-10.229-2.887-15.242c-1.123-1.256-0.993-2.788-0.881-4.652
			c0.136-2.266,2.884-2.543,4.585-4.201c0.202-0.197,0.141-0.52-0.135-0.521c-13.895-0.041-12.993-3.131-15.422-12.626
			c-1.834-7.168-8.454-6.268-8.223-4.018c-3.34-0.496-4.374-2.851-3.873-4.61c0.5-1.759,5.412-4.11,7.188-3.949
			c-0.952-0.099-4.346,0.132-5.346,0.215"/>
	</defs>
	
		<linearGradient id="SVGID_74_" gradientUnits="userSpaceOnUse" x1="-6.1744" y1="191.7138" x2="188.1201" y2="52.235" gradientTransform="matrix(1 9.071399e-04 -9.071399e-04 1 1.9312 -0.2456)">
		<stop  offset="0" style="stop-color:#EF433A"/>
		<stop  offset="0.5" style="stop-color:#F36C21"/>
		<stop  offset="1" style="stop-color:#FDB525"/>
	</linearGradient>
	<use xlink:href="#SVGID_69_"  overflow="visible" fill="url(#SVGID_74_)"/>
	<clipPath id="SVGID_75_">
		<use xlink:href="#SVGID_69_"  overflow="visible"/>
	</clipPath>
</g>
<g>
	<defs>
		<path id="SVGID_68_" d="M68.755,117.547c-0.429,1.45,2.752,2.626,3.166,3.035c2.037,2.014,4.467,1.582,2.885,4.609
			c-0.551,1.055,2.789,2.76,2.663,3.622c0,0-2.428-0.971,0.664,2.633c3.436,4.005-1.746,3.267,1.326,7.569l-0.007,8.226
			c0,0,4.932,19.837,5.261,21.801c0.366,2.163,3.531,6.332,5.029,7.725c1.718,1.599,4.659,3.081,6.539,4.709
			c1.617,1.4,1.51,3.029,2.348,4.968c1.472,3.407,2.353,6.812,1.829,10.854c-0.532,4.107-0.834,7.3-2.303,11.077l2.908,0.003
			c0.685-0.703,1.661-6.267,1.879-7.273c1.031-4.746,2.715-6.826,3.244-10.766c0.312-2.325,0.614-1.197,0.706-5.405
			c0.038-1.744-1.489-5.376-1.562-7.539c-0.061-1.825-0.181-12.295-7.67-30.3c-0.186-0.448-0.576-1.616-0.864-2.308
			c-1.428-3.433-2.609-7.372-6.693-12.565c-2.194-2.791-4.921-5.055-7.702-7.197c-1.297-0.999-3.023-1.92-4.121-3.14
			c-0.844-0.937-0.817-2.522-1.875-3.274c-1.102-0.783-2.766-0.773-3.961-1.436c-1.111-0.616-1.507-0.661-2.532-2.211
			C69.427,114.232,68.874,117.415,68.755,117.547"/>
	</defs>
	
		<linearGradient id="SVGID_76_" gradientUnits="userSpaceOnUse" x1="10.1807" y1="214.4965" x2="204.4752" y2="75.0177" gradientTransform="matrix(1 9.071399e-04 -9.071399e-04 1 1.9312 -0.2456)">
		<stop  offset="0" style="stop-color:#EF433A"/>
		<stop  offset="0.5" style="stop-color:#F36C21"/>
		<stop  offset="1" style="stop-color:#FDB525"/>
	</linearGradient>
	<use xlink:href="#SVGID_68_"  overflow="visible" fill="url(#SVGID_76_)"/>
	<clipPath id="SVGID_77_">
		<use xlink:href="#SVGID_68_"  overflow="visible"/>
	</clipPath>
</g>
<g>
	<defs>
		<path id="SVGID_67_" d="M74.788,20.465c-1.083,0.122-2.334,0.45-3.438,0.943c-1.105,0.492-2.564,1.52-3.315,2.074
			c-0.75,0.555-1.96,1.849-2.272,2.157c-0.313,0.308-1.262,1.773-1.564,2.455c-0.302,0.682-0.748,1.966-0.96,3.023
			c-0.211,1.057-0.496,2.395-0.499,3.238c-0.003,0.843,0.136,1.885,0.286,2.598c0.15,0.712,0.555,2.604,0.882,3.407
			c0.327,0.802,0.735,1.624,1.171,2.324c0.416,0.668,1.276,1.85,2.459,2.664c1.183,0.815,2.623,1.563,2.963,1.789
			c0.34,0.226,1.139,0.929,1.296,1.383c0.157,0.454,0.233,0.94,0.267,1.393c0.034,0.454,0.084,1.443-0.056,2.014
			c-0.141,0.571-0.558,1.348-0.961,1.725c-0.403,0.377-1.205,1.155-2.018,1.421c-0.813,0.267-6.815,2.729-7.482,2.934
			c-2.371,0.729-4.238,2.241-5.813,4.165c-0.122,0.149-4.552,5.671-4.133,5.453c1.255-0.654,4.034,2.866,3.442,1.582
			c-0.705-1.532,1.035-3.981,1.836-5.139c1.812-2.622,4.557-5.36,7.848-5.729c2.99-0.335,6.312-0.358,9.257,0.321
			c1.312,0.302,5.476,1.174,6.328,1.5c0.759,0.29,1.394,0.071,1.855-1.031c-0.056-0.166-1.505-3.798-1.731-4.187
			c-0.76-1.31-4.204-8.195-3.914-8.374c0.377-0.232,3.694,4.297,4.143,4.809c1.304,1.485,1.319,3.064,2.107,4.807
			c0.364,0.806,3.803,3.437,4.711,2.717c1.064-0.844,3.508-0.792,3.884-0.653c1.092-0.186,3.833-0.099,2.834-0.655
			c-1-0.556-4.717-0.814-4.924-1.328c-0.208-0.514-1.185-3.086-1.392-3.991c-0.207-0.905-0.044-1.558,0.544-2.303
			c0.588-0.744,2.877-2.219,3.503-2.917c0.626-0.698,1.668-1.52,1.523-2.59c-0.145-1.07-0.603-1.79-0.811-2.283
			c-0.208-0.494-0.187-0.761-0.166-1.234c0.021-0.473,0.126-0.884,0.105-1.172c-0.021-0.288-0.311-0.967-0.311-0.967
			s0.035-0.665-0.02-0.967c-0.055-0.302-0.742-0.645-0.969-1.58c-0.033-0.135-0.022-0.3-0.022-0.3s0.298-0.194,0.681-0.493
			c0.383-0.299,0.834-0.733,1.063-0.959c0.229-0.226,0.438-0.39,0.417-0.72c-0.021-0.329-0.104-0.679-0.437-0.967
			c-0.333-0.288-0.916-0.906-1.416-1.235c-0.5-0.329-1.707-0.988-1.916-1.071c-0.208-0.082-0.875-0.371-0.958-0.577
			c-0.083-0.206-0.041-0.562-0.082-0.994c-0.053-0.554,0.022-0.932-0.145-1.255c-0.117-0.227-0.791-1.269-1.144-1.825
			c-0.326-0.511-1.115-1.088-1.582-1.77c-0.437-0.638-2.227-2.387-2.664-2.594c-0.437-0.206-1.125-0.618-2.978-0.949
			c-0.886-0.158-1.89-0.213-2.816-0.214C76.272,20.338,75.354,20.401,74.788,20.465"/>
	</defs>
	<linearGradient id="SVGID_78_" gradientUnits="userSpaceOnUse" x1="47.263" y1="51.9695" x2="111.3644" y2="29.7487">
		<stop  offset="0" style="stop-color:#EF433A"/>
		<stop  offset="0.5" style="stop-color:#F36C21"/>
		<stop  offset="1" style="stop-color:#FDB525"/>
	</linearGradient>
	<use xlink:href="#SVGID_67_"  overflow="visible" fill="url(#SVGID_78_)"/>
	<clipPath id="SVGID_79_">
		<use xlink:href="#SVGID_67_"  overflow="visible"/>
	</clipPath>
</g>
<g>
	<defs>
		<path id="SVGID_66_" d="M120.14,52.788c0.098,0.342,0.537,1.21,1.72,5.166c0.794,2.657,1.214,5.077,1.596,8.011
			c0.22,1.686,0.651,6.709,1.421,7.484c-0.181-0.182-3.009-2.544-8.976-5.005c0,0-7.699-12.323-17.367-10.687
			c1.557-0.263,4.376,0.655,5.715,1.543c1.4,0.927,2.942,2.302,3.863,3.734c0,0,3.7,5.393,4.019,6.679
			c0.052,0.209,0.801,0.485,0.994,0.561c1.409,0.562,2.787,1.226,4.168,1.916c2.371,1.183,4.9,2.342,6.7,4.258
			c0.571,0.609,5.224,4.521,4.999,4.817s-3.591-1.19-5.515-1.521c-4.217-0.726-7.055-1.819-11.19-4.163
			c-0.939-0.532-2.049-1.051-3.077-2.046c-0.29-0.281-0.545-0.429-1.217-1.484c-0.673-1.055-0.757-2.841-0.638-4.088
			c0.13-1.351-1.669,1.086-1.948,2.196c-0.229,0.91-0.08,1.95-0.141,2.648c-0.138,1.567,0.043,3.959-0.262,5.505
			c-0.211,1.069-0.556,2.403-1.275,3.229c-0.835,0.959-1.969,1.668-4.235,1.578c-1.596-0.063-4.565-0.817-4.533-0.575
			c0.032,0.242,0.991,0.76,1.325,0.924c1.461,0.718,3.605,1.391,6.115,0.621c1.978-0.607,3.555-2.39,3.244-5.183
			c0.095,0.857,5.964,3.948,8.688,5.018c2.797,1.098,5.373,1.993,8.273,2.776c0,0,0.095,0.025,0.272,0.069
			c0.811,0.199,3.338,0.781,6.265,1.075c1.706,0.171,3.548,0.245,5.266,0.087c0,0,1.876-0.346,2.374-0.591l1.187-0.625
			c1.001-0.767,1.624-0.974,1.862-2.141c0.716-3.502-1.882-9.166-2.684-11.309c-1.662-4.443-2.663-7.31-4.577-11.179
			c-1.228-2.483-2.449-4.907-3.265-7.551c-0.463-1.5-0.766-4.055-0.765-5.637c0,0-8.343,3.815-8.343,3.816"/>
	</defs>
	
		<linearGradient id="SVGID_80_" gradientUnits="userSpaceOnUse" x1="87.8022" y1="83.93" x2="160.6985" y2="54.6566" gradientTransform="matrix(1 9.071399e-04 -9.071399e-04 1 1.9312 -0.2456)">
		<stop  offset="0" style="stop-color:#EF433A"/>
		<stop  offset="0.5" style="stop-color:#F36C21"/>
		<stop  offset="1" style="stop-color:#FDB525"/>
	</linearGradient>
	<use xlink:href="#SVGID_66_"  overflow="visible" fill="url(#SVGID_80_)"/>
	<clipPath id="SVGID_81_">
		<use xlink:href="#SVGID_66_"  overflow="visible"/>
	</clipPath>
</g>
<g>
	<defs>
		<path id="SVGID_65_" d="M124.792,25.785c-0.465,0.214-0.675,1.087-0.691,1.582c-0.014,0.435-0.087,2.194-0.067,3.098
			c0.024,1.094-0.148,2.024-0.131,2.505c0.02,0.555-0.178,1.78-0.178,1.78c-0.008,0.042-0.015-1.406,0.018-2.192
			c0.038-0.915,0.63-4.977-1.231-4.731c-0.41,0.054-1.107,0.362-1.076,1.416c0.024,0.825-0.199,3.758-0.324,4.087
			c-0.19,0.499-0.388,1.968-0.58,2.966c-0.128,0.664-0.432,1.762-0.836,2.471c-0.188,0.329-0.463,1.393-0.547,1.681
			c-0.083,0.288-0.27,0.763-0.354,0.989c-0.084,0.226-0.07,0.299-0.449,0.428c-0.433,0.148-0.672-0.026-1.026-0.396
			c-0.746-0.781-0.536-2.043-0.591-3.066c-0.079-1.483-0.398-3.527-1.616-4.122c-0.306-0.149-1.335-0.199-1.476,0.18
			c-0.257,0.692-0.339,1.912-0.323,2.357c0.029,0.836,0.121,1.248,0.223,2.077c0.152,1.23,0.429,1.962,0.671,2.967
			c0.193,0.806,0.182,1.88,0.286,2.703c0.137,1.087,0.762,1.593,1.216,2.605c0.328,0.729,0.423,1.227,0.832,1.913
			c0.419,0.701,0.832,1.421,1.474,2.012c0.609,0.561,1.31,1.209,2.123,1.694l8.4-3.893c0.097-0.789,0.191-1.143,0.387-1.912
			c0.382-1.504,0.086-2.944,0.613-4.416c0.125-0.35,0.375-1.504,0.355-1.977c-0.02-0.473-0.019-2.366,0.003-3.066
			c0.022-0.699-0.106-3.524-0.189-4.285c-0.083-0.761-0.127-1.74-0.255-2.143c-0.234-0.735-0.929-0.858-0.929-0.858
			c0.047-0.569,0.006-2.703-0.928-2.77c-0.292-0.02-0.991,0.181-1.172,1.35c-0.242,1.566,0.071,3.252,0.029,3.642
			c-0.042,0.391-0.001,0.725-0.033,1.055c-0.032,0.33-0.161,0.709-0.161,0.709s-0.046-2.193-0.046-2.604
			c0.001-0.79-0.063-1.722-0.061-3.033c0.001-0.719,0.307-2.802-0.703-2.868C125.37,25.714,124.985,25.686,124.792,25.785"/>
	</defs>
	
		<linearGradient id="SVGID_82_" gradientUnits="userSpaceOnUse" x1="76.9613" y1="56.934" x2="149.8576" y2="27.6607" gradientTransform="matrix(1 9.071399e-04 -9.071399e-04 1 1.9312 -0.2456)">
		<stop  offset="0" style="stop-color:#EF433A"/>
		<stop  offset="0.5" style="stop-color:#F36C21"/>
		<stop  offset="1" style="stop-color:#FDB525"/>
	</linearGradient>
	<use xlink:href="#SVGID_65_"  overflow="visible" fill="url(#SVGID_82_)"/>
	<clipPath id="SVGID_83_">
		<use xlink:href="#SVGID_65_"  overflow="visible"/>
	</clipPath>
</g>
<g>
	<defs>
		<path id="SVGID_64_" d="M44.818,151.145l-0.038,0.35c0,0,0.896-0.11,1.064-0.257c0.106-0.092-0.157-0.135-0.473-0.135
			C45.183,151.103,44.977,151.118,44.818,151.145"/>
	</defs>
	<clipPath id="SVGID_84_">
		<use xlink:href="#SVGID_64_"  overflow="visible"/>
	</clipPath>
	
		<linearGradient id="SVGID_85_" gradientUnits="userSpaceOnUse" x1="-136.3194" y1="822.9279" x2="-136.0629" y2="822.9279" gradientTransform="matrix(327.8669 -132.0951 -132.0951 -327.8669 153433.8594 251959.3594)">
		<stop  offset="0" style="stop-color:#F27623"/>
		<stop  offset="1" style="stop-color:#F69321"/>
	</linearGradient>
	<polygon clip-path="url(#SVGID_84_)" fill="url(#SVGID_85_)" points="44.648,151.158 45.786,150.687 46.082,151.442 
		44.944,151.913 	"/>
</g>
<g>
	<defs>
		
			<rect id="SVGID_61_" x="11.668" y="0.069" transform="matrix(-1 -9.070951e-04 9.070951e-04 -1 175.9823 222.2278)" width="152.746" height="222.009"/>
	</defs>
	<clipPath id="SVGID_86_">
		<use xlink:href="#SVGID_61_"  overflow="visible"/>
	</clipPath>
	<g clip-path="url(#SVGID_86_)">
		<defs>
			
				<rect id="SVGID_62_" x="37.12" y="99.953" transform="matrix(-1 -9.070951e-04 9.070951e-04 -1 90.0161 306.936)" width="15.916" height="106.989"/>
		</defs>
		<clipPath id="SVGID_87_">
			<use xlink:href="#SVGID_62_"  overflow="visible"/>
		</clipPath>
		<g clip-path="url(#SVGID_87_)">
			<defs>
				<path id="SVGID_63_" d="M41.321,150.815c0,0-0.011,0.544,0.206,1.031c0.216,0.486,0.57,0.875,0.57,0.875
					s-0.157-0.68-0.324-1.002C41.606,151.399,41.321,150.815,41.321,150.815"/>
			</defs>
			
				<linearGradient id="SVGID_88_" gradientUnits="userSpaceOnUse" x1="39.5266" y1="151.9776" x2="40.3044" y2="151.9776" gradientTransform="matrix(1 9.071399e-04 -9.071399e-04 1 1.9312 -0.2456)">
				<stop  offset="0" style="stop-color:#F15A29"/>
				<stop  offset="0.1741" style="stop-color:#F16128"/>
				<stop  offset="0.4432" style="stop-color:#F37327"/>
				<stop  offset="0.772" style="stop-color:#F58C23"/>
				<stop  offset="1" style="stop-color:#F89F1F"/>
			</linearGradient>
			<use xlink:href="#SVGID_63_"  overflow="visible" opacity="0.68" fill="url(#SVGID_88_)"/>
			<clipPath id="SVGID_89_">
				<use xlink:href="#SVGID_63_"  overflow="visible" opacity="0.68"/>
			</clipPath>
			
				<linearGradient id="SVGID_90_" gradientUnits="userSpaceOnUse" x1="18.2698" y1="133.0436" x2="70.6322" y2="121.1952" gradientTransform="matrix(1 9.071399e-04 -9.071399e-04 1 1.9312 -0.2456)">
				<stop  offset="0" style="stop-color:#D2592A"/>
				<stop  offset="1" style="stop-color:#EB6E25"/>
			</linearGradient>
			<polygon clip-path="url(#SVGID_89_)" fill="url(#SVGID_90_)" points="19.609,106.394 47.436,95.918 66.325,148.921 
				38.499,159.397 			"/>
		</g>
	</g>
</g>
<g>
	<defs>
		<path id="SVGID_60_" d="M70.05,154.967c-1.019,3.802-1.259,7.729-1.792,11.617c-0.482,3.511-1.776,6.811-2.327,10.303
			c-0.602,3.818-1.168,8.297-1.215,8.91c-0.13,1.714-0.289,3.255-1.031,5.537c-0.772,2.373-1.697,4.022-3.468,4.48
			c-1.906,0.492-1.822-4.249-1.534-5.803c0.592-3.198,1.623-5.888,3.472-8.304c0.337-0.44,1.844-2.695,2.29-2.794
			c-0.664,0.147-2.378,1.871-2.931,2.398c-5.393,5.137-4.75,7.403-5.032,13.51c-0.246,5.302-2.511,9.08-5.169,13.574l7.493,0.007
			c3.543-4.506,4.903-6.49,7.387-11.82c0.904-1.94,1.651-3.96,2.277-6.03c0.281-0.929,1.041-2.977,1.122-4.025
			c0.26-3.362,0.08-3.929,0.325-4.68c0.45-1.384,4.297,1.52,3.203,5.343c0,0-6.606,15.238-12.303,21.215l3.259,0.003
			c0,0,6.484-8.406,13.752-21.395c0.821-1.467,3.676-3.615,4.092-5.089c0.533-1.886,0.562-4.14,1.374-5.976l-5.635-10.905
			c-0.795,3.708-1.962,9.984-5.489,12.107c-4.048,2.436-0.508-13.177-0.32-14.034c0.259-1.183,2.022-5.132,1.369-6.252
			c0,0-2.361-3.888-2.424-3.999C70.859,153.006,70.089,154.825,70.05,154.967 M70.794,151.81c0-0.001-0.001-0.002-0.001-0.002
			C70.792,151.808,70.793,151.808,70.794,151.81"/>
	</defs>
	<use xlink:href="#SVGID_60_"  overflow="visible" fill="#E84F3D"/>
	<clipPath id="SVGID_91_">
		<use xlink:href="#SVGID_60_"  overflow="visible"/>
	</clipPath>
	<polygon clip-path="url(#SVGID_91_)" fill="#E84F3D" points="43.084,153.091 82.58,146.883 91.542,207.124 52.046,213.332 	"/>
</g>
<g>
	<defs>
		
			<rect id="SVGID_9_" x="11.668" y="0.069" transform="matrix(-1 -9.070951e-04 9.070951e-04 -1 175.9823 222.2278)" width="152.746" height="222.009"/>
	</defs>
	<clipPath id="SVGID_92_">
		<use xlink:href="#SVGID_9_"  overflow="visible"/>
	</clipPath>
	<g clip-path="url(#SVGID_92_)">
		<defs>
			<polygon id="SVGID_39_" points="20.632,185.349 91.665,185.941 91.776,63.674 20.743,63.083 			"/>
		</defs>
		<clipPath id="SVGID_93_">
			<use xlink:href="#SVGID_39_"  overflow="visible"/>
		</clipPath>
		<g clip-path="url(#SVGID_93_)">
			<defs>
				<path id="SVGID_59_" d="M77.446,107.71c1.88,1.584,3.977,4.449,3.541,5.124c-0.494,0.764-1.386-2.109-5.768-1.522
					c-2.835,0.38-4.106,0.875-5.477,2.808c-1.158,1.633-2.685,2.891-2.913,5.096c-0.173,1.67,1.505,3.251,1.535,4.66
					c0.164,7.559,6.973,5.53,8.031,9.676c1.279,5.012,0.222,8.352,1.201,11.274c1.559,4.656,2.325,9.608,3.512,14.372
					c0.687,2.755,1.431,5.507,2.408,8.17c1.351,3.679,2.078,7.915,4.774,10.695c2.73,2.814,1.537,4.634,2.341,7.363
					c-1.087-3.693-4.84-7.963-5.861-9.663c-2.336-3.89-6.885-12.565-9.383-16.589c-2.515-4.05-2.594-4.782-5.188-8.773
					c-2.338-3.596-2.767-4.707-4.291-7.355c-1.886-3.276-2.603-6.386-2.9-8.936c-0.094-0.809-0.142-2.734-0.124-4.307
					c0.046-4.131,1.093-7.346,2.19-9.667c1.328-2.812,1.365-1.893,2.207-4.481c1.094-3.361,1.453-5.801,1.355-8.371
					c-0.032-0.826-0.181-3.531-0.423-4.593c-0.353-1.55-0.79-3.23-1.321-4.616c-0.771-2.009-1.36-3.645-2.005-5.056
					c-1.538-3.361-3.008-5.493-4.022-9.936c-0.66-2.896,4.854-6.588,1.822-8.591c-2.136-1.411-8.356,2.278-9.447,4.104
					c-3.603,6.034-3.653,8.863-7.04,14.323c-0.933,1.51-1.656,3.198-2.492,4.767c-0.849,1.592-1.383,3.592-2.034,5.288
					c-0.863,2.249,1.628,8.109,1.531,10.408c-0.076,1.817-2.262,9.17-2.385,10.809c-0.802,10.694-1.833,9.53,0.434,20.228
					c-0.377-1.113,0.327,1.13,0,0c0.531,1.833-0.148,3.266,0.561,5.038c0.596,1.49,2.087,3.213,3.616,3.801
					c0.333,0.128,4.44,1.082,4.425,1.136c0,0-0.241,0.843-0.241,0.845c-0.179,0.607-3.658-0.309-4.073-0.498
					c-1.086-0.492-2.478-0.66-3.375-1.518c-0.96-0.919-1.366-2.829-1.862-4.07c-0.876-2.192-1.218-4.237-1.237-6.606
					c-0.024-3.074-0.556-5.055-0.561-5.572c-0.326-37.744,1.44-36.54,2.134-39.208c0.103-0.398,0.317-0.801,0.583-1.351
					c3.278-6.787,4.205-12.876,5.902-18.47c1.612-5.31,3.808-10.096,7.434-14.303c-2.326,4.661,1.334,6.284,4.273,8.1
					c1.71,1.056,5.73-0.529,7.356,0.358c1.613,0.881,2.819,5.541,3.757,6.948c1.182,1.772,2.965,3.15,6.77,3.712
					c1.018,0.15,2.126,0.592,3.091,1.01c0.718,0.312,1.476,0.416,1.809,1.087c-0.851,0.023-2.108-0.18-2.951-0.263
					c-2.584-0.257-5.044-1.081-5.947-0.907c-5.511,1.06,1.692,6.471,3.717,7.674c2.406,1.429,4.311,7.088,1.874,9.055"/>
			</defs>
			<use xlink:href="#SVGID_59_"  overflow="visible" opacity="0.2" fill="#F36C21"/>
			<clipPath id="SVGID_94_">
				<use xlink:href="#SVGID_59_"  overflow="visible" opacity="0.2"/>
			</clipPath>
			
				<linearGradient id="SVGID_95_" gradientUnits="userSpaceOnUse" x1="-8.2743" y1="161.0602" x2="104.2271" y2="108.2534" gradientTransform="matrix(1 9.071399e-04 -9.071399e-04 1 1.9312 -0.2456)">
				<stop  offset="0" style="stop-color:#C41A29"/>
				<stop  offset="1" style="stop-color:#F05423"/>
			</linearGradient>
			<polygon clip-path="url(#SVGID_94_)" fill="url(#SVGID_95_)" points="4.07,78.888 88.915,46.948 133.554,172.202 48.708,204.142 
							"/>
		</g>
	</g>
	<path clip-path="url(#SVGID_92_)" fill="#FFFFFF" d="M68.011,24.296c0,0,1.409-1.387,2.429-1.878
		c3.245-1.563,7.733-2.295,11.091-0.865c2.032,0.865,3.537,2.507,4.907,4.169c0.616,0.748,1.262,1.539,1.574,2.466
		c0.159,0.473-0.152,1.875,0.17,2.141c0.235,0.194,5.529,2.7,4.194,3.291c-0.91,0.402-2.863-0.434-3.314,0.699
		c-0.191,0.479-0.167,0.645,0.443,1.276c0.61,0.631,0.835,0.21,1.14,0.237c0.305,0.028,0.188,0.562,0.242,0.891
		c0.042,0.257,0.302,0.724,0.482,0.93c0.318,0.362,0.41,0.381,0.463,0.566c0.03,0.104,0.063,0.378,0.063,0.378
		s-0.304-0.56-1.554-0.204c-1.25,0.355-2.084,0.287-2.084,0.287s-0.306,0.274,0.083,0.302c0.389,0.028,1.237,0.451,1.737,0.314
		c0.5-0.137,1.1-0.117,1.398,0c0.322,0.126,0.403-0.133,0.597,0.477c0.142,0.446,0.118,0.637,0.026,1.301
		c-0.07,0.507-0.08,1.025,0.14,1.568c0.064,0.157,0.188,0.371,0.296,0.594c0.115,0.239,0.241,0.585,0.357,0.933
		c0.138,0.42-0.236,1.073-0.626,1.259c-0.494,0.236-1.229,0.14-1.752,0.079c-1.029-0.12-2.67-2.309-3.476-2.977
		c-0.686-0.568-0.292-1.18-0.475-1.98c-0.166-0.724-1.142-1.801-1.276-2.491c-0.382-1.966-0.354-2.693-1.752-3.98
		c-0.468-0.431-1.949-0.202-2.485-0.55c-0.41-0.266-1.629-1.12-1.924-1.509c-0.167-0.219,0.639-0.273,0.973-0.547
		c0.333-0.274,0.417-0.274,0.721-0.328c1.092-0.195,2.144-0.198,3.251-0.285c0,0-0.722-0.165-1.347-0.481
		c-0.15-0.076-1.208-0.509-1.208-0.509s0.539-0.296,0.861-0.479c0.323-0.183,0.82-0.178,1.375-0.26
		c0.556-0.082,1.042,0.426,1.208,0.618c0.166,0.192,0.499,0.412,0.499,0.412c-0.153,0.227-0.755,0.278-0.695,0.493
		c0.066,0.236,0.305,0.275,0.722,0.303c0.417,0.028,1.639,0.276,1.778,0.029c0.139-0.247-0.333-0.686-0.333-0.686
		c0.034-0.133-0.655-0.205-0.583-0.316c0.255-0.384,0.964-0.215,1.043-0.733c0.167-1.119-1.724-1.577-2.54-1.668
		c-0.5-0.056-1.445,0.218-1.973,0.327c-0.527,0.109-0.611,0.437-1.026,0.274c-1.177-0.463-1.284-0.704-2-1.648
		c-0.756-0.997-1.75-1.9-2.969-2.297c-0.975-0.318-2.005-0.389-2.986-0.677C71.732,22.929,69.915,22.937,68.011,24.296"/>
	<g clip-path="url(#SVGID_92_)">
		<defs>
			
				<rect id="SVGID_37_" x="62.809" y="26.431" transform="matrix(-1 -9.070951e-04 9.070951e-04 -1 155.3099 81.3586)" width="29.728" height="28.426"/>
		</defs>
		<clipPath id="SVGID_96_">
			<use xlink:href="#SVGID_37_"  overflow="visible"/>
		</clipPath>
		<g clip-path="url(#SVGID_96_)">
			<defs>
				<path id="SVGID_38_" d="M69.184,31.935c-2.167,0.491-0.299-3.163-0.302-3.41c-0.012-1.033-1.881-1.589-2.721-1.816
					c-0.611-0.165-0.827-0.289-0.827-0.289s-1.07,1.508-1.467,2.886c-0.065,0.225-0.257,0.674-0.39,1.23
					c-0.202,0.844-0.419,1.946-0.552,2.931c-0.042,0.31-0.097,0.553-0.107,0.809c-0.015,0.399,0.035,0.788,0.057,1.206
					c0.074,1.379,0.808,4.566,1.495,5.924c0.118,0.233,0.194,0.442,0.358,0.708c0.273,0.441,0.574,0.932,0.887,1.353
					c0.494,0.662,1.037,1.132,1.307,1.397c0.267,0.261,0.676,0.538,1.089,0.796c0.254,0.159,0.534,0.336,0.729,0.473
					c0.323,0.228,0.859,0.542,1.318,0.811c0.232,0.136,0.43,0.226,0.6,0.36c0.38,0.298,0.818,0.727,1.048,1.041
					c0.136,0.186,0.246,0.5,0.281,0.704c0.097,0.562,0.227,1.349,0.193,2.016c-0.02,0.389,0.003,0.834-0.263,1.465
					c-0.128,0.303-0.434,0.876-0.614,1.057c-0.843,0.848-1.451,1.234-1.499,1.264c1.627-1.1,3.589-2.854,5.218-0.508
					c0.225,0.325,3.31,0.644,3.214-0.163c-0.11-0.933-1.707-3.169-2.318-4.048c-0.61-0.878-1.137-2.622-1.886-5.099
					c-0.416-1.377-1.212-2.522-2.06-3.503c-0.236-0.273-2.864-3.248-1.791-2.54c0.999,0.659,3.027,0.981,4.059,2.315
					c1.224,1.582,1.986,1.827,2.404,2.359c0.511,0.649,1.276,1.427,2.443,1.812c1.166,0.385,2.499,1.044,3.555,1.155
					c1.055,0.111,1.166,0.056,1.833,0.66c0.666,0.604,0.667,0.22,1.333,0.659c0.255,0.168,0.671,0.601,0.999,0.687
					c0.398,0.104,0.495,0.267,0.88,0.4c0.479,0.166,0.487,0.557,1.023,0.452c0.353-0.069,1.093-0.752,1.395-1
					c0.334-0.274-0.076,0.069-0.076,0.069s3.236-2.321,2.348-2.486c-0.373-0.069-0.844,0.388-1.334,0.492
					c-3.084,0.655-3.004,0.561-4.234-0.422c-0.946-0.755-2.108-1.672-3.231-1.986c-1.007-0.282-1.825-1.024-2.797-1.404
					c-0.873-0.342-2.042-1.792-2.634-2.541c-0.609-0.769,0.446-1.59,0.391-2.249c-0.074-0.886-0.809-1.551-1.329-2.211
					c-0.447-0.568-0.821-1.264-1.35-1.769c-0.638-0.608-1.404-0.41-1.973-0.583c-0.399-0.121-0.551-1.155-1.153-0.977
					c-0.199,0.059-0.747,0.185-0.441,1.366c0.26,1.003,0.243,1.808,0.243,1.808s0.053,1.199,0.79,1.547
					c0.455,0.215,0.639,0.401,0.929,0.759c0.324,0.4,0.813,0.399,0.48,0.989c-0.258,0.458-0.14,0.799-0.633,0.832
					c-0.684,0.045-2.162-0.89-2.79-1.209c-0.872-0.442-1.619-1.091-2.049-1.548c-0.493-0.524-0.519-1.902-0.577-2.834
					C68.603,32.803,68.52,32.21,69.184,31.935"/>
			</defs>
			<use xlink:href="#SVGID_38_"  overflow="visible" fill="#F36C21"/>
			<clipPath id="SVGID_97_">
				<use xlink:href="#SVGID_38_"  overflow="visible"/>
			</clipPath>
			
				<linearGradient id="SVGID_98_" gradientUnits="userSpaceOnUse" x1="13.1484" y1="47.0648" x2="84.8967" y2="33.8631" gradientTransform="matrix(1 9.071399e-04 -9.071399e-04 1 1.9312 -0.2456)">
				<stop  offset="0" style="stop-color:#C41A29"/>
				<stop  offset="1" style="stop-color:#F05423"/>
			</linearGradient>
			<polygon clip-path="url(#SVGID_97_)" fill="url(#SVGID_98_)" points="50.281,28.407 85.083,7.411 105.027,42.33 70.226,63.325 
							"/>
		</g>
	</g>
	<g clip-path="url(#SVGID_92_)">
		<defs>
			<rect id="SVGID_36_" x="69.526" y="32.687" width="2.673" height="3.367"/>
		</defs>
		<clipPath id="SVGID_99_">
			<use xlink:href="#SVGID_36_"  overflow="visible"/>
		</clipPath>
	</g>
	<path clip-path="url(#SVGID_92_)" fill="#FFFFFF" d="M85.8,29.766c0,0,0.206-0.219,0.206-0.548c0-0.329-1.025-0.933-1.641-0.934
		c-0.615-0.001-1.779,0.218-2.805,1.039c0,0,1.779-1.095,2.839-0.601C85.459,29.218,85.869,29.52,85.8,29.766"/>
	<path clip-path="url(#SVGID_92_)" fill="#FFFFFF" d="M71.901,32.547c0,0-1.154-1.636-2.513-0.84c0,0-2.086,1.095-0.314,4.836
		c0,0,1.331,2.485,5.028,3.181c-1.235-0.329-3.494-1.819-4.27-2.808c-0.807-1.03-1.453-2.899-0.568-3.977
		C70.157,31.851,71.321,32.101,71.901,32.547"/>
	<path clip-path="url(#SVGID_92_)" fill="#FFFFFF" d="M122.215,37.764c-0.272,0.206-0.945,0.137-1.123,0.246
		c-0.995,0.609,0.178,1.533,0.416,1.533c0.802,0.001,1.043-0.147,1.139-0.395c0.237-0.606,0.303-1.26,0.386-1.467
		c0.659-1.631,0.416-2.421,0.469-4.103c0.025-0.78,0.847-6.593-1.342-5.325c0.341-0.147,0.652,0.216,0.85,0.528
		c0.512,0.808,0.319,2.595,0.334,2.918c0.016,0.346-0.035,2.217-0.297,3.055c-0.09,0.288-0.973,1.164-0.813,1.724
		C122.233,36.479,122.627,37.452,122.215,37.764z"/>
	<path clip-path="url(#SVGID_92_)" fill="#FFFFFF" d="M124.557,37.437c-0.138,0.009-0.672-0.046-0.929,0.52
		c-0.34,0.746,0.043,0.746,0.679,0.935c0.983,0.292,1.943,0.739,2.92,1.067c0.823,0.276,1.525,0.725,1.739,1.608
		c0.056,0.232,0.05,0.522,0.198,0.708c0.333-0.329,0.41-1.16,0.442-1.603c0.04-0.546,0.106-1.284,0.05-1.681
		c-0.057-0.397-0.018-2.617-0.018-2.985c0-0.369-0.047-2-0.083-2.412c-0.085-0.958-0.099-2.037-0.213-2.349
		c-0.113-0.312-0.348-0.715-0.689-0.775c-0.66-0.117-0.866,0.329-0.866,0.329s0.688-0.043,0.887,0.383
		c0.199,0.426,0.3,1.447,0.271,2.298c-0.029,0.851,0.113,0.511,0.113,1.22c-0.001,0.709,0.112,1.589,0.084,2.1
		c-0.036,0.632,0.11,3.097-1.218,2.569c-0.591-0.235-0.216-0.625-0.528-1.022c-0.139-0.177-0.53-0.043-0.763-0.027
		c-0.406,0.027-0.717,0.147-1.065-0.074c-0.208-0.132-0.192-0.297-0.336-0.528C125.14,37.573,124.798,37.421,124.557,37.437z"/>
	<path clip-path="url(#SVGID_92_)" fill="#FFFFFF" d="M124.76,26.032c0.225-0.148,0.379-0.15,0.513-0.148
		c1.074,0.017,0.793,1.982,0.767,2.605c-0.052,1.23-0.035,2.703,0.012,4.021c0.037,1.039,0.079,1.492-0.066,2.522
		c-0.105,0.741-0.435,1.878-0.595,1.895c-0.224,0.023-0.175-0.046-0.208-0.28c-0.05-0.35,0.068-0.63,0.106-0.98
		c0.018-0.168,0.361-0.961,0.41-1.903C125.846,30.928,126.139,26.033,124.76,26.032"/>
	<g opacity="0.38" clip-path="url(#SVGID_92_)">
		<defs>
			<rect id="SVGID_34_" x="121.827" y="41.53" opacity="0.38" width="4.559" height="3.83"/>
		</defs>
		<clipPath id="SVGID_100_">
			<use xlink:href="#SVGID_34_"  overflow="visible"/>
		</clipPath>
		<g clip-path="url(#SVGID_100_)">
			<defs>
				<path id="SVGID_35_" d="M126.356,43.434c0.293-0.652-1.629-1.109-2.036-1.227c-0.62-0.179-1.405-0.768-2.081-0.667
					c-1.014,0.151,0.129,2.045,0.437,2.467c0.307,0.42,0.981,1.399,1.611,1.351c-0.091,0.007-0.56-1.827-0.346-2.031
					c0.036-0.034,0.09-0.053,0.159-0.061"/>
			</defs>
			
				<linearGradient id="SVGID_101_" gradientUnits="userSpaceOnUse" x1="119.935" y1="43.5793" x2="124.4946" y2="43.5793" gradientTransform="matrix(1 9.071399e-04 -9.071399e-04 1 1.9312 -0.2456)">
				<stop  offset="0" style="stop-color:#F2682A"/>
				<stop  offset="0.1428" style="stop-color:#EF622F"/>
				<stop  offset="0.7143" style="stop-color:#E84F3D"/>
			</linearGradient>
			<use xlink:href="#SVGID_35_"  overflow="visible" opacity="0.44" fill="url(#SVGID_101_)"/>
			<clipPath id="SVGID_102_">
				<use xlink:href="#SVGID_35_"  overflow="visible" opacity="0.44"/>
			</clipPath>
			
				<linearGradient id="SVGID_103_" gradientUnits="userSpaceOnUse" x1="119.0355" y1="43.1951" x2="125.7589" y2="43.1951" gradientTransform="matrix(1 9.071399e-04 -9.071399e-04 1 1.9312 -0.2456)">
				<stop  offset="0" style="stop-color:#C41A29"/>
				<stop  offset="1" style="stop-color:#F05423"/>
			</linearGradient>
			<polygon clip-path="url(#SVGID_102_)" fill="url(#SVGID_103_)" points="120.929,41.19 126.846,40.142 127.649,44.931 
				121.732,45.979 			"/>
		</g>
	</g>
	<g clip-path="url(#SVGID_92_)">
		<defs>
			<polygon id="SVGID_32_" points="117.985,42.241 122.176,42.244 123.331,27.679 117.997,29.013 			"/>
		</defs>
		<clipPath id="SVGID_104_">
			<use xlink:href="#SVGID_32_"  overflow="visible"/>
		</clipPath>
		<g clip-path="url(#SVGID_104_)">
			<defs>
				<path id="SVGID_33_" d="M122.112,28.386c0,0-0.628-0.03-0.674,0.593c-0.049,0.662-0.001,1.319-0.098,2.39
					c-0.039,0.434-0.161,1.428-0.194,1.566c-0.069,0.294-0.2,1.04-0.322,1.681c-0.104,0.545,0.07,0.246-0.242,1.417
					c-0.085,0.322-0.287,1.238-0.434,1.648c-0.141,0.393-0.293,0.774-0.45,1.087c-0.226,0.451-0.386,1.269-0.579,1.829
					c-0.257,0.746-0.434,1.153-0.434,1.104c0,0.478,1.127-0.717,1.734-1.647c0.31-0.475-0.091-1.532,0.178-2.027
					c0.284-0.521,0.674-0.159,0.738-0.725c0.123-1.085,0.395-2.324,0.612-3.18c0.09-0.352-0.043-1.686,0.258-1.912
					c0.359-0.268,0.174-0.098,0.289-0.626c0.088-0.402,0.271-1.518,0.29-1.912C122.817,29.013,122.496,28.584,122.112,28.386"/>
			</defs>
			<use xlink:href="#SVGID_33_"  overflow="visible" fill="#F36C21"/>
			<clipPath id="SVGID_105_">
				<use xlink:href="#SVGID_33_"  overflow="visible"/>
			</clipPath>
			<polygon clip-path="url(#SVGID_105_)" fill="#F36C21" points="118.671,27.925 122.93,27.929 122.918,41.157 117.929,42.243 			
				"/>
		</g>
	</g>
	<g clip-path="url(#SVGID_92_)">
		<defs>
			<polygon id="SVGID_30_" points="122.445,39.137 133.114,32.258 133.125,20.095 122.456,26.973 			"/>
		</defs>
		<clipPath id="SVGID_106_">
			<use xlink:href="#SVGID_30_"  overflow="visible"/>
		</clipPath>
		<g clip-path="url(#SVGID_106_)">
			<defs>
				<path id="SVGID_31_" d="M124.164,29.278c0.046-1.052-0.104,2.008-0.163,2.472c-0.064,0.503-0.153,1.901-0.195,2.406
					c-0.042,0.505-0.063,1.356-0.146,1.912c-0.083,0.556-0.177,1.088-0.177,1.088l-0.177,0.725c0.251-0.15,0.508-0.386,0.69-0.758
					c0.237-0.484,0.126-1.106,0.258-1.615c0.307-1.184,0.241-1.597,0.42-2.801c0.169-1.146,0.326-2.737,0.163-3.905
					c-0.093-0.666-0.785-1.996-0.32-2.637c-0.689,0.607-0.378,0.914-0.383,1.465"/>
			</defs>
			<use xlink:href="#SVGID_31_"  overflow="visible" fill="#F36C21"/>
			<clipPath id="SVGID_107_">
				<use xlink:href="#SVGID_31_"  overflow="visible"/>
			</clipPath>
		</g>
	</g>
	<g clip-path="url(#SVGID_92_)">
		<defs>
			<polygon id="SVGID_27_" points="124.825,38.633 127.75,38.356 127.885,28.26 124.854,28.372 			"/>
		</defs>
		<clipPath id="SVGID_108_">
			<use xlink:href="#SVGID_27_"  overflow="visible"/>
		</clipPath>
		<g clip-path="url(#SVGID_108_)">
			<defs>
				<path id="SVGID_29_" d="M125.663,37.899c0.337,0.099,0.509-0.762,0.771-1.647c0.266-0.895,0.569-1.832,0.548-2.768
					c-0.015-0.676,0.16-2.358,0.291-2.868c0.24-0.928-0.206-2.324-0.511-2.308c-0.305,0.016-0.487,0.709-0.451,2.043
					c0.021,0.808,0.308,2.804,0.205,3.461"/>
			</defs>
			<use xlink:href="#SVGID_29_"  overflow="visible" fill="#EB6D23"/>
			<clipPath id="SVGID_109_">
				<use xlink:href="#SVGID_29_"  overflow="visible"/>
			</clipPath>
		</g>
	</g>
	<path clip-path="url(#SVGID_92_)" fill="#FFFFFF" d="M114.219,34.458c0.067-0.026,0.382-0.112,0.59-0.062
		c0.255,0.061,0.482,0.268,0.657,0.462c0.708,0.782,1.002,2.789,1.037,4.242c0.018,0.754-0.049,1.502,0.272,2.187
		c0.158,0.336,0.61,0.787,0.965,0.953c0.343,0.161,0.632,0.22,0.958,0.269c0.423,0.063,1.171-0.209,0.866-0.032
		c-1.107,0.642-2.393,0.405-2.648,0.285c-0.911-0.43-1.104-1.561-1.151-2.464c-0.057-1.097-0.121-1.794-0.479-2.835
		c-0.177-0.517,0.099-1.464-0.094-1.978C114.969,34.89,114.697,34.544,114.219,34.458"/>
	<g clip-path="url(#SVGID_92_)">
		<defs>
			<path id="SVGID_25_" d="M127.754,31.028c-0.257,0.165-0.211,1.223-0.13,1.73c0.108,0.67,0.239,1.405,0.191,1.863
				c-0.077,0.721-0.033,1.121-0.131,2.637c0,0-0.058,1.918,0.399,1.83c0.408-0.078-0.052-1.52,0.387-1.961
				c0.608-0.61,0.008-1.239,0.13-1.994c0.064-0.394-0.083-1.139-0.015-1.533C128.63,33.347,128.665,30.799,127.754,31.028"/>
		</defs>
		<use xlink:href="#SVGID_25_"  overflow="visible" fill="#EB6D23"/>
		<clipPath id="SVGID_110_">
			<use xlink:href="#SVGID_25_"  overflow="visible"/>
		</clipPath>
	</g>
	<g clip-path="url(#SVGID_92_)">
		<defs>
			<polygon id="SVGID_18_" points="105.523,89.826 137.09,90.349 137.102,76.097 105.536,75.574 			"/>
		</defs>
		<clipPath id="SVGID_111_">
			<use xlink:href="#SVGID_18_"  overflow="visible"/>
		</clipPath>
		<g clip-path="url(#SVGID_111_)">
			<defs>
				<path id="SVGID_24_" d="M132.747,88.109c3.821-0.427,4.952-1.233,4.952-1.233c-3.717,0.016-5.595-0.209-5.504-0.268
					c-1.7-0.265-4.137-1.19-4.137-1.19c-6.201-2.257-9.747-3.119-14.813-5.419c-4.034-1.831-6.91-4.752-7.245-4.226
					c-0.335,0.527-0.354,0.923-0.356,3.131c0,0.329,0.212,0.278,0.737,0.759c0.288,0.264,0.778,0.602,1.122,0.792
					c4.9,2.707,10.406,4.928,15.422,6.31l5.732,1.018L132.747,88.109z"/>
			</defs>
			
				<linearGradient id="SVGID_112_" gradientUnits="userSpaceOnUse" x1="105.9643" y1="88.0464" x2="150.5918" y2="67.0959" gradientTransform="matrix(1 9.071399e-04 -9.071399e-04 1 1.9312 -0.2456)">
				<stop  offset="0" style="stop-color:#EF433A"/>
				<stop  offset="0.5" style="stop-color:#F36C21"/>
				<stop  offset="1" style="stop-color:#FDB525"/>
			</linearGradient>
			<use xlink:href="#SVGID_24_"  overflow="visible" fill="url(#SVGID_112_)"/>
			<clipPath id="SVGID_113_">
				<use xlink:href="#SVGID_24_"  overflow="visible"/>
			</clipPath>
		</g>
	</g>
	<path clip-path="url(#SVGID_92_)" fill="#FFFFFF" d="M126.984,27.913c0.098-0.017,0.003-0.166,0.356-0.231
		c0.978-0.18,1.082,1.67,1.056,2.292C128.397,29.974,128.141,27.951,126.984,27.913"/>
	<g clip-path="url(#SVGID_92_)">
		<defs>
			
				<rect id="SVGID_11_" x="112.782" y="35.98" transform="matrix(-1 -9.070951e-04 9.070951e-04 -1 243.7569 119.7223)" width="18.247" height="47.652"/>
		</defs>
		<clipPath id="SVGID_114_">
			<use xlink:href="#SVGID_11_"  overflow="visible" opacity="0.33"/>
		</clipPath>
		<g clip-path="url(#SVGID_114_)">
			<defs>
				<path id="SVGID_16_" d="M124.365,72.13c0,0-0.374-1.141-1.451-9.659c-0.347-2.75-1.279-5.475-2.774-9.683
					c0.316,0.533-1.059,0.18-3.036-2.782c0,0-0.977-1.385-1.441-2.984c0,0-1.169-1.799-1.168-2.457c0,0,0.001-1.384-0.19-2.67
					c0,0-0.355-1.314-0.639-2.671c-0.461-2.199-0.318-3.231-0.157-3.395s1.185,1.451,1.536,4.188
					c-0.028-0.217,0.158,1.732,0.127,1.516c0.28,3.311,0.409,2.607,0.959,3.297c0.933,1.169,0.565,2.034,1.793,3.001
					c1.408,1.109,1.921,1.799,3.092,1.769c0.518-0.013,1.75,0.31,2.263,0.345c0.962,0.067,1.892,0.463,2.629,1.288
					c0.373,0.418-0.762,0.183-1.379,0.295c-0.502,0.091-1.21-0.097-1.057,0.474c0.293,1.09,0.562,1.904,0.499,2.291
					c-0.478,2.9,0.202,5.902,0.896,8.778c0.619,2.567,1.592,5.037,2.654,7.441c0.455,1.029,0.931,2.049,1.421,3.061
					c0.869,1.796,0.658,8.247,2.182,9.985c0.735,0.839-2.436-3.634-3.091-4.568c-1.742-2.483-1.747-1.337-3.698-6.942"/>
			</defs>
			
				<linearGradient id="SVGID_115_" gradientUnits="userSpaceOnUse" x1="125.5489" y1="53.7608" x2="122.8225" y2="57.0612" gradientTransform="matrix(1 9.071399e-04 -9.071399e-04 1 1.9312 -0.2456)">
				<stop  offset="0" style="stop-color:#EB6D23"/>
				<stop  offset="1" style="stop-color:#F05423"/>
			</linearGradient>
			<use xlink:href="#SVGID_16_"  overflow="visible" fill="url(#SVGID_115_)"/>
			<clipPath id="SVGID_116_">
				<use xlink:href="#SVGID_16_"  overflow="visible"/>
			</clipPath>
		</g>
	</g>
	<path clip-path="url(#SVGID_92_)" fill="#FFFFFF" d="M49.26,102.555c0.222,0.342,0.395,0.752,0.493,1.191
		c0.323,1.443,0.048,3.07-0.314,4.573c-1.295,5.37-3.661,10.202-5.55,15.282c-1.889,5.08-2.112,6.008-1.333,11.336
		c-1.344-8.03,0.115-11.908,3.226-19.466c0.901-2.19,2.468-6.124,2.279-8.678c-0.15-2.023-2.117-2.958-2.658-0.294
		c0.133-1.872,0.517-4.176,1.825-4.8C47.981,101.341,48.751,101.773,49.26,102.555"/>
	<path clip-path="url(#SVGID_92_)" fill="#FFFFFF" d="M49.273,102.547c0.382,0.593,0.565,1.301,0.618,2.005
		c0.057,0.706,0.005,1.417-0.098,2.116c-0.104,0.699-0.259,1.389-0.435,2.072c-0.085,0.342-0.172,0.683-0.27,1.022
		c-0.093,0.34-0.189,0.679-0.294,1.016c-0.1,0.338-0.205,0.674-0.316,1.009c-0.107,0.336-0.219,0.67-0.334,1.002
		c-0.226,0.667-0.466,1.329-0.713,1.989c-0.492,1.319-1.015,2.626-1.539,3.931c-0.525,1.305-1.049,2.61-1.552,3.923
		c-0.25,0.657-0.495,1.316-0.734,1.978c-0.236,0.662-0.477,1.323-0.685,1.993c-0.209,0.67-0.397,1.346-0.52,2.035
		c-0.123,0.689-0.171,1.389-0.162,2.089c0.02,1.402,0.227,2.801,0.427,4.195l-0.219,0.036c-0.478-2.796-0.705-5.675-0.323-8.512
		c0.185-1.416,0.511-2.81,0.927-4.169c0.42-1.359,0.915-2.689,1.434-4.006c0.517-1.318,1.068-2.622,1.591-3.931
		c0.523-1.309,1.01-2.634,1.38-3.993c0.183-0.679,0.336-1.367,0.427-2.062c0.046-0.347,0.076-0.697,0.079-1.045
		c0.001-0.349-0.015-0.695-0.108-1.023c-0.087-0.329-0.242-0.64-0.463-0.887c-0.218-0.244-0.528-0.419-0.841-0.376
		c-0.314,0.042-0.57,0.297-0.739,0.587c-0.168,0.297-0.276,0.632-0.35,0.974l-0.12-0.017c0.053-0.652,0.129-1.304,0.261-1.946
		c0.134-0.639,0.307-1.279,0.622-1.856c0.159-0.285,0.352-0.556,0.603-0.765c0.125-0.105,0.261-0.194,0.411-0.262
		c0.143-0.067,0.309-0.106,0.468-0.116c0.326-0.022,0.644,0.102,0.908,0.286C48.878,102.026,49.095,102.275,49.273,102.547
		 M49.247,102.564c-0.178-0.268-0.394-0.511-0.656-0.693c-0.26-0.177-0.57-0.294-0.883-0.27c-0.157,0.011-0.305,0.047-0.452,0.116
		c-0.14,0.066-0.274,0.154-0.394,0.257c-0.242,0.206-0.429,0.472-0.582,0.753c-0.302,0.57-0.474,1.204-0.594,1.841
		c-0.119,0.639-0.183,1.288-0.225,1.937l-0.12-0.017c0.069-0.352,0.173-0.701,0.345-1.022c0.174-0.312,0.453-0.617,0.838-0.679
		c0.385-0.061,0.751,0.145,0.998,0.411c0.252,0.271,0.426,0.607,0.527,0.959c0.109,0.353,0.132,0.724,0.136,1.083
		c0.003,0.361-0.022,0.72-0.064,1.077c-0.085,0.713-0.236,1.412-0.414,2.102c-0.362,1.379-0.838,2.72-1.355,4.039
		c-0.527,1.316-1.076,2.615-1.592,3.93c-1.031,2.623-1.988,5.298-2.37,8.097c-0.193,1.396-0.249,2.811-0.187,4.222
		c0.061,1.412,0.231,2.818,0.459,4.213l-0.218,0.036c-0.193-1.398-0.394-2.803-0.408-4.227c-0.005-0.711,0.047-1.425,0.176-2.126
		c0.129-0.7,0.323-1.383,0.537-2.056c0.213-0.674,0.458-1.335,0.698-1.997c0.243-0.66,0.492-1.319,0.745-1.976
		c0.509-1.313,1.049-2.612,1.583-3.913c0.535-1.301,1.069-2.601,1.572-3.915c0.252-0.656,0.498-1.315,0.729-1.98
		c0.118-0.331,0.232-0.664,0.339-0.999c0.112-0.333,0.218-0.669,0.319-1.006c0.106-0.336,0.203-0.674,0.297-1.013
		c0.099-0.338,0.187-0.679,0.273-1.021c0.178-0.681,0.335-1.369,0.441-2.065c0.105-0.696,0.159-1.403,0.105-2.106
		C49.803,103.855,49.625,103.155,49.247,102.564"/>
	<path clip-path="url(#SVGID_92_)" fill="#FFFFFF" d="M47.884,142.206c0.974,1.314,0.318,3.494,0.765,4.879
		c0.638,1.972,0.767,3.099,0.509,5.143c-0.043,0.337-0.57-0.75-0.577-0.891c-0.037-0.788,0.189-1.775-0.062-2.538
		c-0.119-0.361-0.24-0.839-0.384-1.187c-0.161-0.389-0.233-1.186-0.383-1.583c-0.194-0.511-0.411-0.808-0.384-1.385
		c0.034-0.723,0.098-1.978-0.318-2.505C46.634,141.612,47.884,142.206,47.884,142.206z"/>
	<path clip-path="url(#SVGID_92_)" fill="#FFFFFF" d="M137.675,83.679c0.178-0.32,0.298-0.693,0.342-1.085
		c0.278-2.52-0.671-4.933-1.646-7.21c-0.961-2.245-1.926-4.487-2.848-6.748c-1.93-4.732-3.912-9.49-6.401-13.967
		c-0.141-0.254-0.389-0.551-0.471-0.828c1.141,3.882,2.711,7.12,4.264,10.862c1.479,3.565,3.01,7.711,3.951,11.47
		c0.342,1.364,1.339,4.243,0.346,5.497c-0.772,0.975-1.494-0.247-1.854-0.994c0.364,1.607,1.031,3.561,2.406,3.961
		C136.556,84.868,137.267,84.411,137.675,83.679"/>
	<path clip-path="url(#SVGID_92_)" fill="#FFFFFF" d="M46.495,153.775c-0.32-0.297-0.861-0.431-1.379-0.759
		c-0.223-0.141-0.475-0.252-0.673-0.429c-0.175-0.156-0.478-0.556-0.609-0.693c-0.627-0.658,0.009-0.641-0.191-1.385
		c-0.17-0.63-0.512-1.78-0.575-2.638c-0.043-0.581-0.384-1.055-0.383-2.11c0.001-0.96,0.157-1.683,0.066-2.241
		c-0.099-0.612-0.224-1.84,0.515-2.241c0.068,0.081-0.006,0.748-0.001,0.857c0.029,0.608,0.197,1.835,0.254,2.439
		c0.05,0.527,1.025,1.089,0.961,1.682c-0.076,0.699-0.339,1.399-0.291,2.076c0.049,0.689,0.165,1.678,0.96,1.946
		c0.243,0.082,0.93,0.403,0.965,0.715c0,0,0.176,0.284,0.509,0.737c0,0,0.462,0.94,1.378,1.188c0,0,0.994,0.191,0.994,0.561
		c0,0-0.712,0.189-0.545,0.23c0,0,1.443,0.397,0.962,0.528C48.932,154.37,46.815,154.072,46.495,153.775z"/>
</g>
<g opacity="0.68">
	<defs>
		<path id="SVGID_8_" opacity="0.68" d="M45.475,146.39c0.25,0.37,0.767,3.033,0.767,3.033c-0.084,1.11,0.383,2.11,0.383,2.11
			c1.165,2.099,1.988,1.188,1.988,1.188c-1.416-0.536-1.281-2.111-1.281-2.111c-0.291-0.247-0.286-2.407-0.286-2.407
			c-0.082-1.439-1.248-3.034-1.248-3.034c-0.135-0.24-0.71-0.82-0.962-0.166c-0.14,0.362,0.448,1.154,0.448,1.154L45.475,146.39z"/>
	</defs>
	
		<linearGradient id="SVGID_117_" gradientUnits="userSpaceOnUse" x1="43.568" y1="149.6502" x2="45.1971" y2="148.8744" gradientTransform="matrix(1 9.071399e-04 -9.071399e-04 1 1.9312 -0.2456)">
		<stop  offset="0" style="stop-color:#F15A29"/>
		<stop  offset="0.1741" style="stop-color:#F16128"/>
		<stop  offset="0.4432" style="stop-color:#F37327"/>
		<stop  offset="0.772" style="stop-color:#F58C23"/>
		<stop  offset="1" style="stop-color:#F89F1F"/>
	</linearGradient>
	<use xlink:href="#SVGID_8_"  overflow="visible" fill="url(#SVGID_117_)"/>
	<clipPath id="SVGID_118_">
		<use xlink:href="#SVGID_8_"  overflow="visible"/>
	</clipPath>
	
		<linearGradient id="SVGID_119_" gradientUnits="userSpaceOnUse" x1="-62.2332" y1="812.2914" x2="-60.6275" y2="811.5268" gradientTransform="matrix(16.2149 0.0147 0.0147 -16.2149 2200.6089 13873.6328)">
		<stop  offset="0" style="stop-color:#F15A29"/>
		<stop  offset="0.1741" style="stop-color:#F16128"/>
		<stop  offset="0.4432" style="stop-color:#F37327"/>
		<stop  offset="0.772" style="stop-color:#F58C23"/>
		<stop  offset="1" style="stop-color:#F89F1F"/>
	</linearGradient>
	<rect x="44.097" y="144.41" clip-path="url(#SVGID_118_)" fill="url(#SVGID_119_)" width="4.395" height="9.546"/>
</g>
<g>
	<defs>
		
			<rect id="SVGID_7_" x="11.668" y="0.069" transform="matrix(-1 -9.070951e-04 9.070951e-04 -1 175.9823 222.2278)" width="152.746" height="222.009"/>
	</defs>
	<clipPath id="SVGID_120_">
		<use xlink:href="#SVGID_7_"  overflow="visible"/>
	</clipPath>
	<path opacity="0.48" clip-path="url(#SVGID_120_)" fill="#FFFFFF" d="M44.53,151.56c0.241,0.148,0.477,0.302,0.708,0.465
		c0.122,0.086,0.286,0.061,0.417,0.005c0.051-0.022,0.291-0.171,0.17-0.256c-0.258-0.183-0.522-0.358-0.791-0.523
		C44.86,151.143,44.276,151.403,44.53,151.56"/>
</g>
<g>
	<defs>
		<path id="SVGID_6_" d="M44.379,151.696c0.49,0.852,1.235,0.888,2.148,1.09c0.248,0.055,0.538-0.279,0.161-0.362
			c-0.844-0.187-1.342-0.302-1.795-1.089c-0.038-0.066-0.298-0.264-0.385-0.264C44.292,151.07,44.267,151.5,44.379,151.696"/>
	</defs>
	<clipPath id="SVGID_121_">
		<use xlink:href="#SVGID_6_"  overflow="visible"/>
	</clipPath>
	
		<linearGradient id="SVGID_122_" gradientUnits="userSpaceOnUse" x1="-131.6133" y1="862.4802" x2="-131.3568" y2="862.4802" gradientTransform="matrix(9.997 0.0091 0.0091 -9.997 1351.764 8775.4326)">
		<stop  offset="0" style="stop-color:#DA5728"/>
		<stop  offset="1" style="stop-color:#F27623"/>
	</linearGradient>
	<rect x="43.588" y="151.013" clip-path="url(#SVGID_121_)" fill="url(#SVGID_122_)" width="3.357" height="2.033"/>
</g>
<g>
	<defs>
		
			<rect id="SVGID_2_" x="11.668" y="0.069" transform="matrix(-1 -9.070951e-04 9.070951e-04 -1 175.9823 222.2278)" width="152.746" height="222.009"/>
	</defs>
	<clipPath id="SVGID_123_">
		<use xlink:href="#SVGID_2_"  overflow="visible"/>
	</clipPath>
	<path clip-path="url(#SVGID_123_)" fill="#FFFFFF" d="M94.524,138.293c4.301-6.323,4.225-6.675,4.548-7.754
		c0,0-1.884,5.844-4.195,8.479L94.524,138.293z"/>
	<path clip-path="url(#SVGID_123_)" fill="#FFFFFF" d="M79.396,125.555c0.967,0.117,2.352,0.705,3.506,1.41
		c0.438,0.267,2.713,2.288,3.931,3.608c0.768,0.832,2.959,2.892,4.016,4.574c0.57,0.908,2.498,4.101,3.33,5.98
		c2.307,5.21,4.41,11.296,6.229,16.707c1.863,5.542,3.784,12.145,3.576,18.111c-0.113,3.237,2.432,6.485,1.02,6.945
		c-0.773,0.252-2.286-1.917-3.607-4.004c-2.315-3.658-2.607-7.166-3.7-11.409c-3.085-11.975-6.675-22.133-14.684-33.513
		c-1.674-2.378-4.703-3.441-5.287-6.125C77.727,127.839,76.638,125.223,79.396,125.555z"/>
</g>
<rect id="SVGID_1_" x="11.668" y="0.069" transform="matrix(-1 -9.070951e-04 9.070951e-04 -1 175.9823 222.2278)" fill="none" width="152.746" height="222.009"/>
<path fill="#FFFFFF" d="M73.398,36.935c0,0,1.932,0.604,1.197,2.103c0,0-0.216,0.037-0.227-0.109
	c-0.011-0.146,0.16-0.635-0.113-1.026C73.943,37.456,72.568,37.088,73.398,36.935z"/>
<path fill="#FFFFFF" d="M84.566,50.795c-0.718-0.11-1.755-0.875-1.775-0.548c-0.016,0.263,0.299,1.311,0.678,2.393
	c0.45,1.286,0.991,2.62,1.172,2.744c0.38,0.26-0.312-2.888,1.098-3.446c0.679-0.269,0.974-0.849,0.752-1.044
	C86.359,50.778,85.171,50.888,84.566,50.795z"/>
<path fill="#EB6D23" d="M126.209,102.294v45.838h-9.645V97.448h5.004C124.106,97.448,126.209,99.685,126.209,102.294z"/>
<path fill="#EB6D23" d="M135.926,97.448c3.191,0,4.714,1.64,4.641,4.845v2.907h-9.645v-7.752H135.926z M135.926,108.704
	c3.119,0,4.641,1.565,4.641,4.77v34.658h-9.645v-39.428H135.926z"/>
<path fill="#EB6D23" d="M155.072,122.939v25.193h-9.791v-23.18c0-11.255,5.512-16.845,16.463-16.845
	c4.932,0,8.703,1.118,11.458,3.354c2.756-2.162,6.527-3.205,11.458-3.205c10.951,0,16.39,5.59,16.317,16.845v23.18h-5.003
	c-3.191-0.223-4.787-1.789-4.787-4.919v-20.273c-0.217-4.099-2.393-6.112-6.672-6.112s-6.454,2.013-6.527,6.112v25.043h-9.718
	v-25.193c-0.217-4.099-2.393-6.112-6.672-6.112C157.319,116.828,155.144,118.84,155.072,122.939z"/>
<path fill="#EB6D23" d="M214.826,114.219c2.466-4.099,6.092-6.112,10.879-6.112c10.225,0.373,15.302,7.23,15.302,20.646
	c0,13.118-5.947,19.752-17.84,19.976c-11.966,0.074-17.985-5.814-17.985-17.665V97.448h4.859c3.191,0,4.786,1.715,4.786,4.994
	V114.219z M214.826,128.306c-0.072,7.974,2.539,12,8.05,12c5.511,0,8.267-4.025,8.267-12c-0.217-7.603-2.901-11.33-8.122-11.33
	C217.8,116.977,215.116,120.703,214.826,128.306z"/>
<path fill="#EB6D23" d="M261.383,140.977c4.06,0,6.092-1.193,6.092-3.727c0-2.013-3.336-3.652-9.936-4.844
	c-8.485-1.566-12.836-5.441-12.909-11.628c0-8.496,6.528-12.521,15.302-12.67c4.932,0,8.848,1.118,11.749,3.354
	c2.828,2.31,4.351,5.515,4.569,9.615h-6.092c-2.247-0.074-3.699-0.894-4.279-2.459c-0.652-1.714-2.61-2.683-5.801-2.683
	c-3.771,0-5.656,1.043-5.656,3.056s2.465,3.578,7.47,4.547c6.527,1.342,10.805,3.056,12.908,5.068
	c1.813,1.938,2.683,4.324,2.683,7.006c0,9.69-7.397,13.267-17.55,13.267c-5.366,0-9.427-1.193-12.038-3.503
	c-2.901-2.236-4.351-5.664-4.351-10.211h9.863C253.623,139.486,256.668,140.977,261.383,140.977z"/>
<path fill="#EB6D23" d="M127.661,175.004h-1.057v22.735c0,1.707,0.982,2.638,2.945,2.638h3.097v7.838
	c-3.247,0.31-6.797,0.31-10.572-0.078c-3.775-0.388-5.588-2.794-5.513-7.372v-44.851h5.211c2.643,0,4.833,2.483,4.833,5.198v6.519
	h6.041v2.25C132.645,172.83,130.454,175.004,127.661,175.004z"/>
<path fill="#EB6D23" d="M156.506,176.245c-5.966,0-8.533,5.122-8.533,11.406v21.029h-10.044v-52.765h5.06
	c3.323,0,4.984,1.785,4.984,5.198v12.261c5.135-6.053,11.402-7.76,18.879-5.044c5.588,2.095,8.23,7.605,7.929,16.528v23.822h-9.968
	v-21.029C164.812,180.746,162.244,176.245,156.506,176.245z"/>
<path fill="#EB6D23" d="M185.124,155.915c3.323,0,4.908,1.707,4.833,5.044v3.026h-10.044v-8.07H185.124z M185.124,167.632
	c3.247,0,4.833,1.629,4.833,4.966v36.082h-10.044v-41.048H185.124z"/>
<path fill="#EB6D23" d="M224.54,208.68c-3.323-0.233-4.984-1.863-4.984-5.121v-21.106c-0.227-4.268-2.493-6.363-6.948-6.363
	s-6.72,2.096-6.796,6.363v26.227h-10.194v-24.132c0-11.717,5.739-17.537,17.141-17.537c11.403,0,16.99,5.82,16.915,17.537v24.132
	H224.54z"/>
<path fill="#EB6D23" d="M234.202,188.195c0-13.657,6.192-20.486,18.576-20.718c12.46-0.078,18.728,5.975,18.728,18.313v24.287
	c0,10.321-6.343,15.52-19.105,15.752c-9.062,0-14.801-4.345-17.142-13.036h11.101c0.68,2.948,3.021,4.346,7.174,4.346
	c5.286,0,8.004-3.181,8.004-9.545c0,0,0,0.078,0-4.19c-2.568,4.035-6.419,6.053-11.403,6.053
	C239.488,209.456,234.202,202.317,234.202,188.195z M261.538,188.505c0.075-8.303-2.719-12.415-8.458-12.415
	c-5.739,0-8.532,4.113-8.532,12.415c0.226,7.915,2.945,11.872,8.381,11.872C258.367,200.377,261.236,196.42,261.538,188.505z"/>
<path fill="#EB6D23" d="M294.232,201.231c4.229,0,6.343-1.241,6.343-3.88c0-2.096-3.473-3.803-10.345-5.044
	c-8.834-1.629-13.365-5.664-13.441-12.106c0-8.846,6.796-13.036,15.934-13.191c5.135,0,9.212,1.164,12.233,3.492
	c2.945,2.405,4.531,5.742,4.758,10.01h-6.343c-2.341-0.078-3.851-0.931-4.456-2.561c-0.68-1.785-2.718-2.793-6.04-2.793
	c-3.927,0-5.89,1.086-5.89,3.181c0,2.095,2.568,3.724,7.778,4.733c6.797,1.396,11.252,3.181,13.442,5.277
	c1.887,2.017,2.794,4.5,2.794,7.294c0,10.088-7.703,13.812-18.274,13.812c-5.588,0-9.818-1.241-12.535-3.647
	c-3.021-2.328-4.531-5.897-4.531-10.631h10.27C286.153,199.679,289.324,201.231,294.232,201.231z"/>
<path fill="#F7943A" d="M62.696,224.247c-1.572,1.338-3.448,2.006-5.629,2.006c-2.194,0-4.075-0.662-5.647-1.988
	c-1.548-1.338-2.322-2.953-2.322-4.845c0-1.892,0.78-3.495,2.34-4.809c1.571-1.35,3.448-2.024,5.629-2.024
	c2.193,0,4.128,0.717,5.805,2.151l-1.653,1.337c-1.196-1.012-2.58-1.518-4.151-1.518c-1.584,0-2.926,0.47-4.029,1.41
	c-1.103,0.952-1.653,2.104-1.653,3.453s0.551,2.501,1.653,3.453c1.126,0.952,2.469,1.428,4.029,1.428
	c1.559,0,2.943-0.513,4.151-1.537l1.478,1.211V224.247z"/>
<path fill="#F7943A" d="M65.773,225.947v-13.034h2.287v11.064h6.649v1.97H65.773z"/>
<path fill="#F7943A" d="M90.365,224.247c-1.572,1.338-3.448,2.006-5.629,2.006c-2.194,0-4.07-0.668-5.629-2.006
	c-0.798-0.674-1.388-1.412-1.768-2.215c-0.381-0.801-0.572-1.672-0.572-2.612c0-1.88,0.78-3.489,2.34-4.827
	c1.559-1.338,3.436-2.006,5.629-2.006c2.181,0,4.057,0.668,5.629,2.006c1.571,1.362,2.357,2.971,2.357,4.827
	C92.722,221.301,91.936,222.91,90.365,224.247z M88.764,215.968c-1.114-0.94-2.457-1.41-4.028-1.41c-1.584,0-2.926,0.47-4.029,1.41
	c-1.103,0.952-1.653,2.104-1.653,3.453s0.551,2.501,1.653,3.453c1.126,0.952,2.469,1.428,4.029,1.428
	c1.559,0,2.902-0.477,4.028-1.428c1.114-0.964,1.671-2.115,1.671-3.453S89.878,216.932,88.764,215.968z"/>
<path fill="#F7943A" d="M105.406,225.332c-1.197,0.614-2.54,0.922-4.029,0.922c-1.537,0-2.879-0.313-4.028-0.94
	c-1.408-0.734-2.111-1.789-2.111-3.164h2.305c0,0.82,0.433,1.398,1.301,1.736c0.364,0.132,0.754,0.235,1.17,0.307
	c0.416,0.072,0.87,0.109,1.363,0.109c0.974,0,1.818-0.139,2.533-0.416c0.868-0.35,1.301-0.868,1.301-1.555
	c0-0.868-0.773-1.446-2.322-1.735h0.018c-0.399-0.06-0.789-0.124-1.17-0.19c-0.381-0.066-0.765-0.135-1.153-0.207h0.018
	c-0.399-0.061-0.779-0.124-1.143-0.19c-0.364-0.066-0.739-0.136-1.125-0.208c-1.818-0.578-2.727-1.687-2.727-3.326
	c0-1.205,0.644-2.181,1.935-2.929c0.562-0.313,1.158-0.552,1.785-0.714c0.628-0.162,1.311-0.244,2.05-0.244
	c1.442,0,2.721,0.319,3.835,0.958c1.291,0.748,1.935,1.79,1.935,3.127h-2.304c0-0.771-0.393-1.326-1.178-1.663
	c-0.657-0.301-1.419-0.452-2.287-0.452c-0.879,0-1.653,0.145-2.322,0.433h0.017c-0.773,0.362-1.161,0.856-1.161,1.483
	c0,0.904,0.774,1.501,2.322,1.789c0.375,0.072,0.753,0.142,1.134,0.208s0.771,0.135,1.17,0.207c0.388,0.072,0.765,0.145,1.135,0.217
	c0.369,0.072,0.748,0.139,1.134,0.199c1.806,0.579,2.709,1.658,2.709,3.236C107.516,223.584,106.813,224.585,105.406,225.332z"/>
<path fill="#F7943A" d="M110.488,225.947v-13.034h10.783v1.953h-8.496v3.579h6.649v1.953h-6.649v3.579h8.496v1.97H110.488z"/>
<path fill="#F7943A" d="M134.693,225.947l-3.413-4.519c-0.493-0.687-1.349-1.03-2.568-1.03h-1.988v5.55h-2.287v-13.034h6.491
	c1.267,0,2.381,0.338,3.342,1.012c1.009,0.748,1.513,1.658,1.513,2.73c0,0.843-0.335,1.608-1.003,2.296
	c-0.552,0.53-1.202,0.922-1.953,1.175c0.305,0.241,0.645,0.603,1.02,1.085l3.588,4.736H134.693z M132.689,215.353
	c-0.493-0.326-1.08-0.488-1.759-0.488h-4.204v3.579h4.204c0.68,0,1.267-0.162,1.759-0.488c0.527-0.337,0.791-0.771,0.791-1.301
	C133.48,216.137,133.216,215.703,132.689,215.353z"/>
<path fill="#F7943A" d="M155.027,214.865v11.082h-2.286v-11.082h-4.803v-1.953h11.892v1.953H155.027z"/>
<path fill="#F7943A" d="M174.625,224.247c-1.572,1.338-3.448,2.006-5.629,2.006c-2.194,0-4.07-0.668-5.629-2.006
	c-0.798-0.674-1.388-1.412-1.768-2.215c-0.381-0.801-0.572-1.672-0.572-2.612c0-1.88,0.78-3.489,2.34-4.827
	c1.559-1.338,3.436-2.006,5.629-2.006c2.181,0,4.057,0.668,5.629,2.006c1.571,1.362,2.357,2.971,2.357,4.827
	C176.981,221.301,176.196,222.91,174.625,224.247z M173.023,215.968c-1.114-0.94-2.457-1.41-4.028-1.41
	c-1.584,0-2.926,0.47-4.029,1.41c-1.103,0.952-1.653,2.104-1.653,3.453s0.551,2.501,1.653,3.453
	c1.126,0.952,2.469,1.428,4.029,1.428c1.559,0,2.902-0.477,4.028-1.428c1.114-0.964,1.671-2.115,1.671-3.453
	S174.137,216.932,173.023,215.968z"/>
<path fill="#F7943A" d="M189.329,225.947v-13.034h2.287v11.064h6.649v1.97H189.329z"/>
<path fill="#F7943A" d="M200.78,225.947v-13.034h2.287v13.034H200.78z"/>
<path fill="#F7943A" d="M208.52,214.865v3.579h6.649v1.953h-6.649v5.55h-2.287v-13.034h10.783v1.953H208.52z"/>
<path fill="#F7943A" d="M219.532,225.947v-13.034h10.783v1.953h-8.496v3.579h6.649v1.953h-6.649v3.579h8.496v1.97H219.532z"/>
<path fill="#EB6D23" stroke="#EB6D23" stroke-width="0.7683" stroke-miterlimit="10" d="M304.223,116.745
	c0,4.868-2.809,7.642-6.115,9.736l5.344,6.962c0.881-1.641,1.487-3.792,1.873-6.509h3.966c1.707,0,2.534,0.962,2.368,2.943
	c-0.165,2.773-1.487,5.774-4.076,8.774l6.941,8.604h-8.814l-2.589-3.226c-1.377,1.301-2.975,2.717-4.903,3.226
	c-5.288,1.302-10.962,0.679-14.322-2.095c-2.204-2.037-3.361-4.811-3.361-8.207c0-6.34,3.58-9,8.098-11.604l-1.543-1.981
	c-2.644-4.132-3.25-9.226,0.44-12.566c1.873-1.641,4.297-2.49,7.217-2.547C300.146,108.255,304.223,111.311,304.223,116.745z
	 M290.341,131.689c-1.598,1.189-2.368,2.773-2.368,4.755c0,3.339,1.763,5.038,5.288,5.264c2.424,0,4.406-0.848,5.894-2.717
	l-6.886-8.773L290.341,131.689z M291.608,116.859c0,1.019,0.552,2.15,1.543,3.396l1.267,1.698c2.038-1.076,3.361-2.773,3.361-5.208
	c-0.055-1.924-1.102-2.886-3.029-2.886C292.765,113.859,291.663,114.878,291.608,116.859z"/>
</svg>